<?xml version="1.0" encoding="UTF-8"?>
<svg id="Camada_1" data-name="Camada 1" xmlns="http://www.w3.org/2000/svg" viewBox="0 0 459.68 466.31">
  <defs>
    <style>
      .cls-1 {
        fill: #8157b0;
      }

      .cls-1, .cls-2, .cls-3, .cls-4, .cls-5, .cls-6, .cls-7, .cls-8, .cls-9, .cls-10, .cls-11, .cls-12, .cls-13, .cls-14, .cls-15, .cls-16, .cls-17, .cls-18, .cls-19, .cls-20, .cls-21, .cls-22, .cls-23, .cls-24, .cls-25, .cls-26, .cls-27, .cls-28, .cls-29, .cls-30, .cls-31, .cls-32, .cls-33, .cls-34, .cls-35, .cls-36, .cls-37, .cls-38, .cls-39, .cls-40, .cls-41, .cls-42, .cls-43, .cls-44, .cls-45, .cls-46, .cls-47, .cls-48, .cls-49, .cls-50, .cls-51, .cls-52, .cls-53, .cls-54, .cls-55, .cls-56, .cls-57, .cls-58, .cls-59, .cls-60, .cls-61, .cls-62, .cls-63 {
        stroke-width: 0px;
      }

      .cls-2 {
        fill: #864fcb;
      }

      .cls-3 {
        fill: #8953c7;
      }

      .cls-4 {
        fill: #8256b8;
      }

      .cls-5 {
        fill: #8857c6;
      }

      .cls-6 {
        fill: #8555bf;
      }

      .cls-7 {
        fill: #8a58c1;
      }

      .cls-8 {
        fill: #8853c4;
      }

      .cls-9 {
        fill: #8750c8;
      }

      .cls-10 {
        fill: #8951c5;
      }

      .cls-11 {
        fill: #e6d2fa;
      }

      .cls-12 {
        fill: #8456bf;
      }

      .cls-13 {
        fill: #8c4fcb;
      }

      .cls-14 {
        fill: #8058bb;
      }

      .cls-15 {
        fill: #8a4bd5;
      }

      .cls-16 {
        fill: #894dce;
      }

      .cls-17 {
        fill: #8551c3;
      }

      .cls-18 {
        fill: #8b4bd8;
      }

      .cls-19 {
        fill: #8b4bd1;
      }

      .cls-20 {
        fill: #8b4cce;
      }

      .cls-21 {
        fill: #8952c6;
      }

      .cls-22 {
        fill: #8852c2;
      }

      .cls-23 {
        fill: #8554c4;
      }

      .cls-24 {
        fill: #7f56b4;
      }

      .cls-25 {
        fill: #8950c8;
      }

      .cls-26 {
        fill: #8a4fc7;
      }

      .cls-27 {
        fill: #884cd7;
      }

      .cls-28 {
        fill: #8754c5;
      }

      .cls-29 {
        fill: #8553c4;
      }

      .cls-30 {
        fill: #8456bd;
      }

      .cls-31 {
        fill: #8a50c9;
      }

      .cls-32 {
        fill: #8659b8;
      }

      .cls-33 {
        fill: #8352bc;
      }

      .cls-34 {
        fill: #8356b1;
      }

      .cls-35 {
        fill: #8556bd;
      }

      .cls-36 {
        fill: #8554c2;
      }

      .cls-37 {
        fill: #8456b7;
      }

      .cls-38 {
        fill: #e5d4f6;
      }

      .cls-39 {
        fill: #8353bd;
      }

      .cls-40 {
        fill: #7e59b5;
      }

      .cls-41 {
        fill: #8454bf;
      }

      .cls-42 {
        fill: #884fc9;
      }

      .cls-43 {
        fill: #884cca;
      }

      .cls-44 {
        fill: #8353b8;
      }

      .cls-45 {
        fill: #8756c1;
      }

      .cls-46 {
        fill: #905ad3;
      }

      .cls-47 {
        fill: #8652c3;
      }

      .cls-48 {
        fill: #894bd5;
      }

      .cls-49 {
        fill: #8754c2;
      }

      .cls-50 {
        fill: #8554be;
      }

      .cls-51 {
        fill: #8358b6;
      }

      .cls-52 {
        fill: #884cd1;
      }

      .cls-53 {
        fill: #874fc1;
      }

      .cls-54 {
        fill: #8954c3;
      }

      .cls-55 {
        fill: #8153b9;
      }

      .cls-56 {
        fill: #7e56b5;
      }

      .cls-57 {
        fill: #8453bf;
      }

      .cls-58 {
        fill: #8455b8;
      }

      .cls-59 {
        fill: #845bb6;
      }

      .cls-60 {
        fill: #8554b4;
      }

      .cls-61 {
        fill: #8352c3;
      }

      .cls-62 {
        fill: #885ac0;
      }

      .cls-63 {
        fill: #e8d5f9;
      }
    </style>
  </defs>
  <path class="cls-16" d="M201.5,0h237.38c2.78.99,3.93,2.99,2.89,5.73-1.24,3.22.09,6.29.08,9.42-.06,18.1-.03,36.2-.03,54.3,0,22.1-.03,44.19.03,66.29,0,3.11-.53,5.74-3.51,7.3-.29.2-.6.38-.92.53-2.53-.98-3.66,1.57-5.37,2.42-3.36,1.68-6.95,3.31-9.35,6.5-.71.92-1.68,1.38-2.77,1.65-1.79.33-3.43.95-4.69,2.34-.35.31-.72.57-1.14.78q-3.81,1.46-5.63-.92c1.04,3.73-1.25,4.35-3.44,5.33-3.8,1.71-7.22,4.09-10.24,6.99-5.48,4.01-11.42,7.24-17.54,10.14-3.28.48-6.45,1.15-8,4.62-6.37,4.69-13.5,8.11-20.26,12.14-8.3,4.94-16.78,9.58-25.05,14.57-2.63,1.58-4.83,1.74-7.67.08-20.71-12.1-41.45-24.14-62.29-36.02-1.72-.98-3.57-1.83-4.92-3.38-.88-1.41-2.31-1.83-3.81-2.13-7.82-3.69-15-8.53-22.6-12.63-6.23-3.36-12.08-7.38-18.5-10.38-.85,0-.91,1.71-2.09.97-.03-2.2-.68-4.29-1.13-6.42-.49-3.53-.51-7.08-.51-10.63.01-41.16,0-82.33.03-123.49,0-2.07-.44-4.26,1.06-6.08Z"/>
  <path class="cls-16" d="M174.82,145.85c-12.18,6.98-24.35,13.96-36.53,20.94-.84.23-1.85.18-2.14,1.3-14.84,8.63-29.65,17.3-44.52,25.88-9.07,5.24-18.21,10.35-27.32,15.51-2.26.9-4.35,2.11-6.36,3.47-1.59,1.08-2.93,1.04-4.8-.09-4.32-2.61-8.57-5.42-13.27-7.36-1.69-.43-3.11-1.38-4.46-2.44-1.57-1.99-3.85-2.78-6.12-3.58-9.24-5.25-18.47-10.51-27.73-15.72-1.62-.91-1.44-2.31-1.44-3.74,0-13.11,0-26.23,0-39.34,0-46.9,0-93.79,0-140.69h172.03c.85,1.49,2.09,2.95.33,4.63-1,1.03-.83,1.87.34,2.67,1.4.96,1.64,2.22.77,3.69-.47.54-1.02.99-1.43,1.58-.53,1.17-.38,2.41-.38,3.62-.01,39.74-.01,79.48,0,119.21,0,1.11-.06,2.22.2,3.3.25,1.51.79,2.41,2.36,1.08-.94-14.05-.36-28.09-.42-42.12-.1-27.22-.02-54.43-.05-81.65,0-3.07.43-5.96,2.09-8.6.41-.29.78-.25,1.12.13.18,13.76.06,27.51.07,41.27.02,30.4-.02,60.8.06,91.2,0,2.43-.52,4.33-2.39,5.83Z"/>
  <path class="cls-57" d="M178.17,0c2.92,2.77,6.68,4.2,10.06,6.22,1.54.92,2.08,1.91,2.08,3.7-.05,48.02-.05,96.04.01,144.06,0,2.07-.72,3.16-2.47,4.16-41.5,23.91-82.98,47.86-124.44,71.85-1.4.81-2.52,1-3.98.15-19.17-11.12-38.36-22.21-57.54-33.29-1.19-.69-2.39-1.34-1.36-3.21,9.03,5.2,18.05,10.37,27.06,15.58,10.46,6.04,20.93,12.06,31.32,18.21,1.78,1.05,3.08.95,4.8-.05,30.7-17.8,61.43-35.55,92.15-53.3,9.79-5.66,19.58-11.33,29.42-16.9,2.02-1.14,2.96-2.37,2.95-4.88-.09-46.8-.08-93.6,0-140.39,0-2.46-.79-3.82-2.89-4.92-4.03-2.09-7.94-4.4-11.9-6.62.02-.12.04-.25.06-.37h4.67Z"/>
  <path class="cls-52" d="M201.5,0c0,44.53,0,89.06.02,133.59,0,1.92-.53,3.94.96,5.72.46.55-.41,1.11-1,1.44-2.56,1.24-3.1-.11-2.97-2.32,0-44.83,0-89.66.02-134.49,0-1.31-.32-2.66.31-3.93h2.67Z"/>
  <path class="cls-13" d="M442.21,0c-.02,45.4-.04,90.81-.05,136.21q0,5.2-5.22,7.32c4.34-2.72,3.98-7,3.98-11.33-.06-39.31-.02-78.62-.16-117.93,0-.95,2.18-3.81-1.6-3.55-.44.03-.12-1.26.39-1.65,1.93-1.44,1.13-3.71,1.73-5.54.63-1.95-2.31-1.84-2.4-3.53h3.33Z"/>
  <path class="cls-58" d="M198.84,0c0,46.24,0,92.49,0,138.73-.2.31-.4.29-.6,0-.04-.33-.1-.66-.1-.99,0-45.91.02-91.83.04-137.74h.67Z"/>
  <path class="cls-45" d="M457.65,9.99c-.08-1.5-1.37-1.87-2.37-2.5C451.18,4.93,446.75,2.93,442.88,0c1.33,0,2.67,0,4,0,4,2.44,8.01,4.88,12.01,7.32.06.69.49,1.34.18,2.06-.33.55-.75.87-1.43.61Z"/>
  <path class="cls-42" d="M173.5,0c0,.13-.02.25-.06.37.37,1.87,2.51,1.66,3.42,2.9.45,1.36.5,2.71-.04,4.06-.22,0-.44,0-.66,0-1.22,2.03-2.54.68-3.55-.09-1.02-.78-2-1.94-.45-3.25.77-.73,1.19-1.66.08-2.26-1.25-.68-.08-1.18-.08-1.74h1.33Z"/>
  <path class="cls-16" d="M78.78,228.63c7.32-4.32,14.62-8.68,21.97-12.94,23.42-13.56,46.86-27.08,70.3-40.61.76-.44,1.59-.75,2.38-1.12,1.83-.64,3.27-.14,4.68,1.21,1.28,1.23,2.64,2.65,4.78,2.05.33-.29,1.33.61,1.06-.27-.37-1.21-1.34-2.19-2.67-2.67-.87-.31-2.01-.37-2.02-1.72,1.73-3.69,1.94-3.72,7.3-1.06,1.36.57,2.65,1.75,4.23.49h-.01c.94-.29,1.46.36,2.02.91,1.7,2.27,4.73,2.73,6.56,4.83,1.21,1.85,2.97,2.76,5.14,2.96,4.33,1.52,8.12,4.09,11.97,6.46,5.38,3.32,10.99,6.22,16.43,9.41,1.71,1,3.56,1.83,4.94,3.34.98,1.6,2.75,2.12,4.24,3.02.25.17.47.37.68.58,1.09,1.45,2.82,1.58,4.36,2.11,1.81.5,3.7.86,4.94,2.5,1.11,1.46,2.4,2.62,4.39,2.59,5.54,2.09,10.31,5.6,15.41,8.48,4.52,2.55,9.32,4.7,13.34,8.09,1,1.61,2.77,2.13,4.3,2.98.26.16.5.34.73.54,2.15,1.97,5.47,2.37,6.96,5.37.25.51,2.29-.3,3.46.29,1.05.5,1.95,1.16,2.53,2.19,1.2,1.49,1.3,3.26,1.3,5.06,0,43.45.02,86.91-.01,130.36,0,1.55-.09,3.11-.26,4.65-.36,1.23-1.13,1.93-2.46,1.92-.2-.04-.4-.12-.57-.24-.34-.23-.5-.6-.71-.93.16.39.45.72.6,1.12-.23,1.1-1.2,2.24-1.95,1.8-2.54-1.51-2.67.78-3.5,1.93-.96,1.32-2.42,1.85-3.76,2.6-2.88,1.61-5.78,3.18-8.52,5.03-1.36.93-3.03,1.44-4,2.92-5.11,3.58-10.43,6.79-16.13,9.35-1.92.14-3.33,1.26-4.68,2.48-3,2.57-6.28,4.67-10.07,5.89-2.75.59-5.05,2.08-7.34,3.61-2.83,1.89-5.93,3.36-8.8,5.18-.22.21-.46.39-.71.56-1.19.6-2.35,1.24-3.17,2.36-4.41,3.18-9.03,6.01-14.11,8.04-2.23,1.07-3.93-.31-5.71-1.2-.19-.09-.34-.23-.32-.25.38-.23-.27.14.2.16,2.76,1.87,2.62,2.4-1.15,4.67-.27.16-.55.29-.84.4-6.98,3.97-13.77,8.25-20.81,12.1-1.24.68-2.81,1.92-3.91.71-1.48-1.63-4.49-2.39-3.95-5.49-1.36,1.58-2.95,2.56-5.03.92-.8-.63-1.74-.95-2.73-1.11-.31-.06-.59-.18-.84-.37-3.06-3.57-7.66-4.6-11.45-6.97-.29-.11-.56-.25-.81-.44-4.79-2.43-8.69-6.41-13.96-8.01-.28-.15-.53-.33-.78-.52-1.16-1.41-2.58-2.5-4.35-2.93-3.4-.83-5.65-3.97-9.21-4.43-4.66-1.94-9.03-4.37-13.05-7.44-2.54-2.57-5.53-4.37-9.06-5.24-2.63-.95-5.21-1.99-6.88-4.43-.5-1.69.31-2.86,1.65-3.71-1.73.88-3.17,2.56-5.43,1.42-.27-.13-.52-.3-.75-.48-1.37-1.09-2.83-2.01-4.64-2.18-2-.53-3.86-1.29-5.17-3-3.84-3.11-7.77-6.08-12.47-7.79-.28-.06-.55-.17-.8-.3-.66-.61-1.45-.66-2.29-.51-.3-.02-.59-.1-.86-.23-1.2-3.11-4.1-4.11-6.74-5.44-.43-.4-.63-.91-.72-1.47-.45-1.42-.3-2.87-.3-4.31,0-42.22.09-84.44-.12-126.66-.03-5.81.56-10.43,6.82-12.5,1.21-.4,2.42-1.11,3.42-2.02,2.38-1.74,5.34-2.57,7.5-4.68Z"/>
  <path class="cls-16" d="M2.88,402.44c-.72.5-1.44.99-2.16,1.49-1.01-.9-.56-1.96-.56-2.88-.03-60.96-.03-121.92.01-182.88,0-1.11-.66-2.45.63-3.36.92-.06,1.76.42,2.68.42,3.86,1.93,7.74,3.81,10.99,6.74,1.68,3.99,5.53,4.88,8.99,6.32,1.21.79,2.4,1.61,3.84,1.93.84.3,1.76.1,2.61.36,2.74,1.22,5.32,2.75,7.9,4.24,1.04.6,2.56.99,2.38,2.74.45.4.91.8,1.36,1.19.34,8.32.25,16.64.25,24.96,0,35.43,0,70.85,0,106.28,0,.56-.03,1.11,0,1.67.29,4.62.2,9.06-5.01,11.21-3.8,2.45-7.63,4.85-11.76,6.74-6.19,2.72-11.81,6.43-17.47,10.07l.02-.05c-1.52,1.02-3.55,1.19-4.7,2.83Z"/>
  <path class="cls-7" d="M40.19,237.55c-3.07-3.14-7.69-3.85-10.81-6.91-1.13-.07-2.17-.56-3.27-.77-.51-.27-1.04-.48-1.54-.78-.97-1.12-2.55-1.34-3.56-2.4-.83-.85-1.96-1.12-3.02-1.52-1.5-.75-2.95-1.56-3.86-3.05-3.72-2.22-7.45-4.45-11.17-6.67-.88-.16-1.63-.56-2.18-1.28-.82-.68-.74-1.52-.35-2.77,7.05,4.05,14.01,8.03,20.96,12.04,10.46,6.04,20.88,12.13,31.38,18.1,1.86,1.05,2.62,2.18,2.62,4.4-.07,47.78-.05,95.55-.05,143.33,0,1.57.02,2.86-1.75,3.87-17.33,9.89-34.59,19.9-51.87,29.87-.37.22-.78.37-1.22.57-1.03-2.24.72-2.74,2-3.48,15.83-9.15,31.64-18.35,47.54-27.38,2.25-1.28,2.97-2.66,2.96-5.21-.08-46.66-.08-93.33,0-139.99,0-2.62-.8-4.17-3.13-5.15-3.33-1.4-5.93-4.27-9.69-4.81Z"/>
  <path class="cls-57" d="M203.42,154.74c3.22,3.14,7.38,4.81,11.17,7.01,37.54,21.77,75.15,43.41,112.69,65.19,2.42,1.4,4.11,1.36,6.52-.03,40.35-23.38,80.76-46.65,121.15-69.95.8.11,1.78.03,1.38,1.36-13.01,7.59-25.99,15.23-39.03,22.77-27.63,15.99-55.31,31.9-82.91,47.95-2.76,1.61-4.79,1.75-7.69.06-40.78-23.72-81.65-47.29-122.49-70.89-.48-.27-.91-.61-1.37-.92-.44-.51-.84-1.04-.89-1.75.13-.4.36-.73.73-.95.28-.1.53-.05.74.16Z"/>
  <path class="cls-41" d="M62.81,380.19c2.69,1.21,5.64,2.08,6.69,5.35.37.43.73.91.69,1.48-.21,2.92,1.62,4.32,3.88,5.61,9.83,5.61,19.62,11.29,29.42,16.96,29.97,17.35,60,34.58,89.93,52,2.18,1.27,3.94,1.2,6.15-.08,8.83-5.12,17.64-10.29,26.52-15.32.87-.49,1.7-1.07,2.76-1.04.35.05.64.2.88.44.38.68.25,1.3-.21,1.88-10.54,6.13-21.1,12.21-31.59,18.42-1.71,1.01-2.71.02-3.88-.66-17.76-10.23-35.51-20.48-53.26-30.73-23.6-13.63-47.19-27.27-70.78-40.92-.66-.38-1.25-.88-1.88-1.32-.83-2.64.19-5.41-.57-8.05-1.59-1.1-3.18-2.19-4.77-3.29-.35-.26-.34-.51.03-.74Z"/>
  <path class="cls-57" d="M192.16,173.38c-.46-.46-.92-.91-1.39-1.37.14-.16.26-.35.43-.49,3.35-2.87,6.31-2.63,10.28-.31,36.42,21.29,73.02,42.28,109.53,63.42,4.57,2.65,9.39,4.91,13.6,8.16-.51.73-1.27.97-2.09,1.12-4.49-1.15-8.12-3.98-12.02-6.24-35.43-20.51-70.89-40.95-106.36-61.38-1.15-.66-2.34-1.29-3.42-2.06-2.31-1.66-4.61-2.65-7.28-.76-.36.25-.86.1-1.28-.08Z"/>
  <path class="cls-50" d="M325.44,384.18c1.15,5.53-.77,8.72-6.03,11.68-28.47,16-56.64,32.54-84.91,48.89-.95.55-1.96,1-2.95,1.5-.89.41-1.43-.2-2.02-.68l-.11-.13c-.03-1.56,1.26-1.96,2.28-2.55,29.17-16.76,58.23-33.7,87.43-50.4,2.19-1.25,3.75-2.71,3.82-5.36.29-.91.43-1.87.86-2.74.19-.27.45-.45.77-.53.33,0,.62.1.86.33Z"/>
  <path class="cls-47" d="M72.17,232.79c-1.97,2.09-4.14,3.89-6.93,4.83-2.43.82-3.55,2.29-3.58,5.14-.47,44.17-.01,88.35-.21,132.52,0,1.48.42,2.83.7,4.23-.79.44-.98-.37-1.41-.68-.04-1.11-.12-2.21-.12-3.32,0-44.48.01-88.96-.06-133.45,0-2.44.7-3.87,2.9-4.93,2.98-1.44,5.8-3.2,8.69-4.82.23.09.32.2.24.3-.07.11-.15.17-.22.17Z"/>
  <path class="cls-44" d="M456.32,158.32c-.46-.45-.92-.91-1.38-1.36,2.36-.92,2.64-2.73,2.64-5.06-.07-45.97-.05-91.94-.04-137.92,0-1.33.08-2.66.12-3.99.41-.22.82-.44,1.23-.66.45.6.28,1.23.11,1.86-.14.99-.1,1.99-.1,2.99,0,45.5,0,91.01,0,136.51,0,1-.05,2,.13,2.99.22,1.04.41,2.09-.11,3.11-.68.82-1.62,1.18-2.58,1.53Z"/>
  <path class="cls-58" d="M36.79,382.86c-.3-.26-.37-.72-.05-.82,4.64-1.36,4.71-5.2,4.71-8.91.04-42.01.02-84.03.02-126.04,0-2.78-1.76-5.58.08-8.34,1.21,1.07.62,2.49.62,3.73.04,44.06-.05,88.12.15,132.18.02,4.54-1.38,7.01-5.53,8.2Z"/>
  <path class="cls-1" d="M458.9,156.79c0-.91-.02-1.82-.02-2.73-.57-1.04-.3-2.18-.3-3.27-.02-45.61-.02-91.23,0-136.84,0-1.09-.27-2.22.3-3.27,0-.45,0-.9,0-1.35.22-.67-.77-1.35.01-2.02,1.21.79.65,2.02.65,3.04.03,47.8.03,95.59,0,143.39,0,1.02.56,2.25-.65,3.04Z"/>
  <path class="cls-30" d="M176.82,7.34c.01-1.35.02-2.71.04-4.06,1.16.82.62,2.04.62,3.06.03,45.12,0,90.23.09,135.35,0,2.28-.72,3.51-2.75,4.17,2.29-2.53,2.03-5.63,2.02-8.71-.02-43.27-.02-86.54-.02-129.81Z"/>
  <path class="cls-53" d="M324.86,384.18h-.33s-.33,0-.33,0c-1.45-1.61-.92-3.59-.92-5.42-.03-42.66-.02-85.32-.03-127.98,0-1.55.11-3.11-.16-4.65-.25-.79-.49-1.59-.31-2.44.33-.87,1.07-.91,1.83-.91.28.45.55.91.83,1.36-.49,1.29-.24,2.64-.24,3.96-.02,44.05,0,88.1-.03,132.15,0,1.31.32,2.66-.31,3.93Z"/>
  <path class="cls-60" d="M324.86,384.18c0-45.4,0-90.8.02-136.21,0-1.28-.47-2.68.55-3.83.04,1.33.12,2.66.12,3.99,0,44.13,0,88.26,0,132.38,0,1.22-.07,2.44-.11,3.66,0,0-.29,0-.29,0h-.29Z"/>
  <path class="cls-25" d="M186.83,172.08c-1.26-.84-2.82-.79-4.18-1.58-2.18-1.27-1.9,1.74-3.15,2.25-.25.31-.28.69-.33,1.07.12.66.68.82,1.18,1.04.98.7,3.28.14,2.48,2.55-.2.87-.07,2.12-1.6.92-1.51-1.18-3.49-1.78-4.6-3.46-.85-1.29-2.28-.1-3.2-.91,1.68-1.06,3.51-1.93,5-3.2,3.04-2.6,5.76-2.04,8.48.37.33.35.3.66-.09.95Z"/>
  <path class="cls-29" d="M39.88,205.51c3.16.39,5.86,1.97,8.29,3.8,1.94,1.46,4.4,1.85,6.15,3.68,1.06,1.11,2.41.09,3.61-.59,2.04-1.15,3.67-3.24,6.38-2.91-2.53,1.55-5.07,3.08-7.57,4.67-.86.54-1.57.53-2.43,0-4.77-2.95-9.9-5.3-14.43-8.65Z"/>
  <path class="cls-36" d="M7.56,399.66c.15-2.29,2.43-1.94,3.67-2.75,4.37-2.84,8.43-6.35,13.81-7.32-5.66,3.64-11.43,7.09-17.47,10.07Z"/>
  <path class="cls-37" d="M202.17,155.4c.22.62.44,1.25.66,1.87-1.49-.33-1.36-1.49-1.36-2.61.01-2.54-.02-5.09,0-7.63.02-2.3.43-4.68-2.58-5.69-1.23-.41-.74-1.66-.67-2.61.2,0,.4,0,.6,0-.2,2.1,1.22,2.07,2.65,2.01,1.04,1.86.08,4.18,1.34,5.99.62.54.07,1.42.59,1.99,0,.24,0,.47-.01.71-.23.42-.38.86-.5,1.32-.22,1.56.26,3.22-.73,4.66Z"/>
  <path class="cls-14" d="M72.17,232.79c-.01-.16-.02-.31-.02-.47,2.16-1.32,4.23-2.81,6.63-3.69-1.45,2.58-4.06,3.33-6.61,4.16Z"/>
  <path class="cls-32" d="M29.3,199.49c2.69.08,5.04.74,6.12,3.58-2.16-.99-4.27-2.06-6.12-3.58Z"/>
  <path class="cls-34" d="M67.55,384.21c1.23,2.61.3,5.37.57,8.05-1.4-2.6-.42-5.36-.57-8.05Z"/>
  <path class="cls-36" d="M2.88,402.44c.63-2.5,2.94-2.2,4.7-2.83-1.33,1.34-2.99,2.11-4.7,2.83Z"/>
  <path class="cls-57" d="M186.83,172.08c.03-.32.06-.63.09-.95,1.24.51,2.38,1.43,3.86.86-1.27,2.2-2.62.72-3.95.08Z"/>
  <path class="cls-4" d="M136.15,168.1c0-1.58.38-1.82,2.14-1.3-.71.43-1.43.87-2.14,1.3Z"/>
  <path class="cls-46" d="M229.53,445.57c.67.23,1.35.45,2.02.68-.68.4-1.35.81-2.03,1.21,0-.63,0-1.26,0-1.89Z"/>
  <path class="cls-63" d="M.78,214.17c.87.18,1.62.58,2.18,1.28-1.06.94-1.52-.17-2.16-.65,0-.21-.01-.43-.02-.64Z"/>
  <path class="cls-59" d="M60.74,378.84c.47.23.94.45,1.41.68.22.22.44.45.66.67,0,.25-.02.49-.03.74-1.17-.22-2.2-.57-2.04-2.09Z"/>
  <path class="cls-21" d="M413.99,156.74c-6.29,4.33-12.99,7.96-19.74,11.49.34-1.16,1.26-1.75,2.24-2.31,3.88-2.21,7.09-5.61,11.75-6.32.08-1.41-2.4-.42-1.52-1.88.55-.92,1.62-2.01,2.55-2.11,1.58-.17.3,1.6.95,2.28,1.32-.23,2.35-1.34,3.77-1.15Z"/>
  <path class="cls-13" d="M436.97,143.54c-4.7,3.23-9.67,5.98-14.73,8.59,1.11-2.72,3.87-3.46,5.99-4.96,1.53-1.08,2.84-2.73,5.07-2.39.14.02.39-.23.48-.4q1.08-1.99,3.19-.84Z"/>
  <path class="cls-54" d="M377.05,178.15c-2.47,2.01-5.3,3.39-8.14,4.77,1.29-4.02,4.66-4.49,8.14-4.77Z"/>
  <path class="cls-62" d="M419.78,153.49c-1.46,1.19-2.91,2.4-4.91,2.55,1.06-1.96,2.95-2.32,4.91-2.55Z"/>
  <path class="cls-13" d="M439.83,4.35c-1.08.48-1.62.05-1.98-.67-.08-.16.16-.7.29-.72.87-.1,1.28.5,1.68,1.38Z"/>
  <path class="cls-24" d="M249.46,170.35c-1.47-.51-2.79-1.29-4-2.26,1.72.08,3.35.3,4,2.26Z"/>
  <path class="cls-56" d="M203.42,148.72c-.71-.51-.55-1.28-.59-1.99.13-.93-.41-2.1.94-2.59-.12,1.53-.24,3.05-.35,4.58Z"/>
  <path class="cls-20" d="M172.16,4c.1,3.05,1.14,3.92,4,3.34-3.06,41.82-.49,83.71-1.32,125.55-.04,2.17-.36,4.38,1.09,6.41.53.75.58,2.11-.27,3.09-1.36-.23-1.16-1.85-2.17-2.33-1.18-1.16-.93-2.67-.93-4.09-.02-40.4-.02-80.79,0-121.19,0-1.44-.08-2.91.94-4.12-.03-1.15.08-2.11-1.37-2.88-1.78-.94-2.23-2.55.04-3.79Z"/>
  <path class="cls-2" d="M173.5,10.67c0,43.13,0,86.26,0,129.39-.1,1.36-.83,2.11-2.15,2.45-.42-1.2,1.07-1.5.82-2.45-.92-1.16-.65-2.55-.65-3.86-.01-40.34-.01-80.68,0-121.02,0-1.31-.27-2.69.65-3.86.29-.54.78-.65,1.33-.67Z"/>
  <path class="cls-19" d="M172.16,11.34c0,42.91,0,85.82,0,128.73-2.19-.54-1.29-2.34-1.29-3.58-.05-33.08-.04-66.17-.04-99.25,0-7.66-.02-15.32.02-22.98,0-1.11-.55-2.59,1.31-2.91Z"/>
  <path class="cls-18" d="M117.46,177.63c-.8.32-1.09.5-1.39.55-1.2.2-2.11,1.77-3.54.77-.11-.08-.04-.76.12-.85,1.34-.75,2.66-1.82,4.81-.48Z"/>
  <path class="cls-56" d="M202.84,150.08c.19-.22.38-.44.57-.65,0,1.77,0,3.54.01,5.31-.19,0-.38,0-.58,0-.51-1.55-.5-3.11,0-4.66Z"/>
  <path class="cls-43" d="M188.93,148.52V11.56c.11,0,.22,0,.33,0v137.09c-.11-.04-.22-.09-.33-.13Z"/>
  <path class="cls-39" d="M302.18,238.15c1.6-.13,2.18.76,2.19,2.21,0,1.67,0,3.33,0,5,0,43.64.01,87.28-.03,130.92,0,1.32.74,2.91-.83,3.94-.21-.15-.28-.3-.21-.46.06-.16.13-.24.2-.24,0-2.31.01-4.62.01-6.92,0-42.37,0-84.75.03-127.12,0-2.56-.02-5.05-1.36-7.32Z"/>
  <path class="cls-26" d="M206.89,435.58c-.33,1.07-1.29,1.45-2.15,1.94-6.78,3.91-13.59,7.76-20.32,11.75-1.44.86-2.47.87-3.87-.03-3.42-2.19-6.94-4.21-10.42-6.3.73-.8,1.73-.22,2.08.11,2.41,2.32,4.17,1.48,5.8-.89.42-.61,1.09-.61,1.72-.39.46,1.47-3.2,2.03-.65,3.73,2.02,1.35,3.08,4.49,6.76,1.93,5.27-3.68,11.05-6.64,16.74-9.68,1.4-.75,2.17-2.91,4.32-2.17Z"/>
  <path class="cls-31" d="M303.51,379.52c0,.23.01.46.02.7-6.45,4.04-12.98,7.95-19.78,11.39-.32.23-.62.2-.9-.09,2.7-2.29,5.89-3.78,8.97-5.43,1.69-.91,3.18-1.81,4.05-3.67.34-.72.76-2.97,2.65-.77.95,1.1,1.71-.65,2.34-1.46.97.1,1.83-.2,2.65-.67Z"/>
  <path class="cls-5" d="M248.18,412.19c-5.38,3.43-10.83,6.73-16.59,9.5.16-.41.21-1.04.51-1.19,5.36-2.63,10.05-6.44,15.6-8.71.09-.04.32.26.48.4Z"/>
  <path class="cls-17" d="M85.51,394.09c-4.66-2.32-9.16-4.89-13.46-7.83,2.48-.33,4.27.58,6.12,2.35,1.84,1.76,4.33,2.89,6.64,4.1.75.4,1.07.6.69,1.38Z"/>
  <path class="cls-61" d="M157.46,435.61c-5.1-2.57-10.11-5.29-14.75-8.63,3.68.01,6.27,2.36,8.85,4.44,1.89,1.53,4.97,1.36,5.91,4.19Z"/>
  <path class="cls-15" d="M182.83,177.42c-.28-2.05-2.42-1-3.33-2-.32-.63-1.04-1.13-.67-2,.22-.22.44-.44.67-.67,1.96.77,4.08,1.21,5.16,3.43.45.92,1.33,1.83.3,2.57-1.33.96-1.25-1.12-2.13-1.33Z"/>
  <path class="cls-23" d="M142.75,427.03c-5-2.23-9.6-5.14-14.19-8.08.96,0,1.93-.28,2.81.47,2.35,2.02,5.12,3.34,8.01,4.34,1.69.59,2.76,1.64,3.37,3.26Z"/>
  <path class="cls-48" d="M62.97,241.68c2.45.67,4.62-.54,6.9-.22.8.11,1.76.19,1.05,1.34-.92,1.49-6.81.82-7.95-1.12Z"/>
  <path class="cls-22" d="M289.59,230.63c3.76,1.59,7.28,3.58,10.46,6.15-1.86.06-3.91,1-4.97-1.69-.96-2.42-4.87-1.45-5.49-4.45Z"/>
  <path class="cls-61" d="M169.5,442.72c-4.02-2.38-8.04-4.75-12.05-7.13.61-.27,1.11-.43,1.83,0,2.66,1.56,5.15,3.45,8.19,4.33,1.3.38,1.82,1.53,2.03,2.81Z"/>
  <path class="cls-9" d="M100.06,402.52c-1.66-.81-3.46-1.39-4.69-2.88,3.16,1.28,5.22-2.24,8.7-1.99-1.83,1.61-4.44,2.12-4.01,4.87Z"/>
  <path class="cls-3" d="M214.46,431.63c-2.39,1.6-4.6,3.54-7.6,3.98.25-.35.43-.92.75-1.01,3.02-.85,2.04-2.24.56-3.73,2.11.16,4.03,1.85,6.29.76Z"/>
  <path class="cls-33" d="M116.1,411.82c-3.24-1.71-6.51-3.38-9.47-5.56,3.84.7,7,2.53,9.47,5.56Z"/>
  <path class="cls-27" d="M192.37,178.19c-1.94.74-3.21.89-3.99-.6-.21-.41-.08-1.48.04-1.5,1.66-.34,2.38,1.09,3.95,2.1Z"/>
  <path class="cls-35" d="M242.28,203.29c1.73.63,3.49,1.21,4.61,2.83-1.82-.49-4.31.13-4.61-2.83Z"/>
  <path class="cls-6" d="M198.83,178.09c2.02.83,3.89,1.93,5.62,3.25-2.56.1-4.44-.96-5.62-3.25Z"/>
  <path class="cls-9" d="M95.37,399.68c-1.79-.57-3.44-1.41-4.8-2.74,2.06.11,3.97.47,4.8,2.74Z"/>
  <path class="cls-55" d="M251.56,208.48c1.68.83,3.4,1.62,4.81,2.91-2.37.3-3.83-.9-4.81-2.91Z"/>
  <path class="cls-12" d="M284.91,227.8c1.69.77,3.45,1.42,4.73,2.88-1.93-.38-3.87-.73-4.73-2.88Z"/>
  <path class="cls-35" d="M237.57,200.43c1.67.82,3.47,1.4,4.72,2.9-1.93-.38-3.89-.73-4.72-2.9Z"/>
  <path class="cls-28" d="M282.85,391.52c.3.03.6.06.9.09-1.39,1.33-3.11,2.09-4.83,2.86.53-2.03,2.61-1.98,3.93-2.95Z"/>
  <path class="cls-51" d="M263.03,403.59c-1.51,1.04-2.88,2.35-4.84,2.55,1.31-1.42,2.67-2.75,4.84-2.55Z"/>
  <path class="cls-31" d="M300.95,380.44c-1.62-1.41-.96-2.03-.05-2.78.83,1.03-.26,1.73.05,2.78Z"/>
  <path class="cls-5" d="M231.63,421.66c-.92,1.05-2.1,1.66-3.41,2.06.59-1.59,1.88-2.02,3.41-2.06Z"/>
  <path class="cls-3" d="M208.22,430.88c-.87-.01-1.74.07-2.38-.97,1.31-.61,2.06-.4,2.38.97Z"/>
  <path class="cls-17" d="M72.07,386.3c-.63-.31-1.25-.62-1.88-.93,1.22-.88,1.83-.55,1.88.93Z"/>
  <path class="cls-8" d="M14.13,222.12c1.5.67,2.88,1.52,4.04,2.71,1.05.43,2.1.86,3.21,1.13.77,1.38,2.81,1.22,3.41,2.8-.44.44-.88.39-1.33.02-3.18-.74-6.23-1.67-8.51-4.27-.65-.75-.84-1.49-.83-2.39Z"/>
  <path class="cls-49" d="M23.47,228.78c.44,0,.89-.01,1.33-.02.6.04,1.13.2,1.41.8.34.46,1.74-.11,1.17,1.22-1.62-.05-3.04-.5-3.91-2.01Z"/>
  <path class="cls-38" d="M27.38,230.79c-.39-.41-.78-.82-1.17-1.22,1.34-.47,2.26.27,3.17,1.07-.63.45-1.23,1.38-2,.15Z"/>
  <path class="cls-11" d="M21.38,225.96c-1.39.53-2.33-.22-3.22-1.13,1.31-.3,2.29.33,3.22,1.13Z"/>
  <path class="cls-16" d="M202.84,150.08c0,1.55,0,3.11,0,4.66-.22.22-.44.44-.67.66.27-1.77-.66-3.69.66-5.32Z"/>
  <path class="cls-40" d="M323.62,386.83c-.04-1.22-.11-2.44-.11-3.66,0-44.9,0-89.79,0-134.69,0-1.22.07-2.44.11-3.66,1.03,1.15.56,2.55.56,3.83.03,45.18.02,90.36.03,135.54-.1.9.29,1.91-.58,2.64Z"/>
  <path class="cls-10" d="M458.88,10.68c0,47.79,0,95.58,0,143.38-1.09-.99-.64-2.29-.64-3.45-.02-45.49-.02-90.98,0-136.47,0-1.16-.45-2.47.64-3.45Z"/>
  <path class="cls-16" d="M178.83,173.42l.67,2c-.49-.58-2.94-.5-.67-2Z"/>
</svg>