<?xml version="1.0" encoding="utf-8"?>
<!-- Generator: Adobe Illustrator 28.1.0, SVG Export Plug-In . SVG Version: 6.00 Build 0)  -->
<svg version="1.1" id="Camada_1" xmlns="http://www.w3.org/2000/svg" xmlns:xlink="http://www.w3.org/1999/xlink" x="0px" y="0px"
	 viewBox="0 0 461.64 375.78" style="enable-background:new 0 0 461.64 375.78;" xml:space="preserve">
<style type="text/css">
	.st0{fill:#FEFEFE;}
	.st1{fill:#8A4DCF;}
	.st2{fill:#8A4ECF;}
</style>
<g>
	<path class="st0" d="M455.83,373.64c4.1-0.02,4.42-0.36,4.44-4.57c0.06-17.94,0.02-35.88,0.02-53.83c0-2.12,0.04-4.23,0.21-6.34
		c-0.3-1.19,0.14-2.38,0.01-3.58c-0.29-6.37-0.22-12.74-0.01-19.11c-0.29-1.2,0.17-2.4-0.02-3.61c-0.25-1.11-0.19-2.23-0.19-3.35
		c0-59.83-0.01-119.65,0-179.48c0-0.87-0.02-1.75,0.09-2.61c0.33-1.18,0.14-2.55,1.28-3.42c0-34.65-0.01-69.3-0.01-103.95
		c1.55,0.67,0.7,2.02,0.7,2.99c0.07,14.84,0.05,29.67,0.05,44.51"/>
	<path class="st0" d="M462.47,372.41c0,2.8-0.63,3.44-3.44,3.44c-157.17-0.08-314.34-0.07-471.51-0.12c-1.1,0-2.54,0.86-3.37-0.7
		c5.28-0.02,10.57-0.04,15.85-0.06c2.06-0.63,4.09-1.43,6.32-1.09c72.4-0.5,144.8-0.1,217.2-0.21c11.34-0.02,22.67-0.23,34.01,0.22
		c2.21-0.32,4.25,0.44,6.32,1.04c11.07,0.03,22.13,0.05,33.2,0.08c3.58-2.15,7.54-0.61,11.29-1.19c10.86-0.15,21.72-0.2,32.58-0.08
		c2.15,0.54,4.32-0.22,6.48,0.12"/>
	<path class="st1" d="M461.66,93.74c-0.02,0.97-0.04,1.94-0.06,2.91c-1.93,0.85-3.39-0.38-4.84-1.22
		c-33.78-19.53-67.62-38.96-101.4-58.49c-15.97-9.24-32.02-18.34-47.9-27.74c-3.75-2.22-6.63-2.16-10.27,0
		c-18.65,11.07-37.52,21.78-56.3,32.63c-30.77,17.76-61.51,35.58-92.36,53.2c-3.95,2.26-5.49,4.8-5.48,9.44
		c0.16,57.08,0.15,114.17,0.02,171.25c-0.01,4.18,1.38,6.54,4.97,8.59c40.16,22.94,80.15,46.18,120.24,69.24
		c9.94,5.72,19.97,11.3,29.75,17.28c3.26,1.99,5.71,1.67,8.89-0.16c49.97-28.89,99.95-57.77,149.98-86.55
		c1.43-0.82,2.81-2.32,4.75-1.08c-0.01,0.98-0.01,1.96-0.02,2.93c-0.83,1.83-2.49,2.7-4.11,3.64
		c-36.51,20.98-72.98,42.02-109.43,63.11c-11.54,6.68-23.15,13.22-34.61,20.03c-1.75,1.04-3.66,1.53-5.55,2.15
		c-3.63,0.04-7.26,0.07-10.88,0.11c-14.63-8.52-29.24-17.08-43.89-25.55c-36.77-21.26-73.55-42.5-110.38-63.66
		c-2.55-1.47-3.6-3.03-3.6-6.09c0.1-59.95,0.09-119.91,0.03-179.86c0-2.76,0.6-4.48,3.2-5.98C194.78,63.77,247.1,33.56,299.41,3.33
		c1.85-1.07,3.23-1.56,5.38-0.32c51.52,29.83,103.1,59.56,154.67,89.31C460.21,92.76,460.92,93.26,461.66,93.74z"/>
	<path class="st1" d="M263.84,374.93c-1.91,0.03-3.81,0.05-5.72,0.08c-6.88-2.1-12.68-6.31-18.79-9.85
		c-34.31-19.88-68.74-39.55-102.98-59.53c-3.29-1.92-5.79-1.92-9.2,0.06c-38.36,22.33-76.86,44.44-115.26,66.7
		c-1.95,1.13-4.01,1.98-6.19,2.57c-1.9,0-3.8,0.01-5.7,0.01c7.98-5.54,16.63-9.94,25-14.8c34.7-20.12,69.47-40.1,104.18-60.19
		c1.8-1.04,3.14-1.25,5.07-0.13c42.78,24.78,85.61,49.47,128.42,74.19C263.1,374.29,263.45,374.63,263.84,374.93z"/>
	<path class="st2" d="M341.16,375.03c4.65-3.76,10.06-6.29,15.19-9.26c33.84-19.59,67.71-39.13,101.59-58.65
		c1.15-0.66,2.19-1.71,3.69-1.63c0,0.98,0,1.96-0.01,2.93c-37.54,21.66-75.08,43.31-112.62,64.98c-0.75,0.43-1.43,0.98-2.14,1.47
		C344.96,374.92,343.06,374.97,341.16,375.03z"/>
</g>
</svg>
