<?xml version="1.0" encoding="utf-8"?>
<!-- Generator: Adobe Illustrator 28.1.0, SVG Export Plug-In . SVG Version: 6.00 Build 0)  -->
<svg version="1.1" id="Camada_1" xmlns="http://www.w3.org/2000/svg" xmlns:xlink="http://www.w3.org/1999/xlink" x="0px" y="0px"
	 viewBox="0 0 564.25 345.94" style="enable-background:new 0 0 564.25 345.94;" xml:space="preserve">
<style type="text/css">
	.st0{fill:#FEFEFE;}
	.st1{fill:#894DCF;}
	.st2{fill:#F0F0F0;}
</style>
<g>
	<path class="st0" d="M558.98,345.94c-0.01-2.02-0.01-4.04-0.02-6.06c-0.59-0.59-0.8-1.33-0.86-2.13
		c-0.36-9.54-0.27-19.07-0.06-28.61c-0.36-10.32-0.09-20.64-0.15-30.96c-0.03-4.31-0.11-8.62,0.05-12.92
		c-0.06-8.88-0.05-17.77-0.04-26.65c0-1.3-0.06-2.6,0.04-3.89c0.38-1.28-0.18-2.82,1.04-3.88c-0.01-5.04-0.02-10.08-0.03-15.12
		c-0.84-1.65-1.08-3.43-1.08-5.25c0-66.83-0.01-133.66,0.01-200.49c0-0.7,0-1.41,0.14-2.1c0.12-1.12-0.17-2.27,0.1-3.39
		c0.05-0.76,0.3-1.44,0.84-2c0.09-1.24-0.41-1.89-1.73-1.84c-1,0.04-2.01,0-3.01,0c-184.73,0-369.46,0-554.19,0
		c0.13-0.19-0.3-0.63,0.3-0.61c0.8,0.03,1.61,0.01,2.41,0.01c184.71,0,369.41,0,554.12-0.06c2.26,0,2.77,0.51,2.77,2.77
		c-0.06,113.49-0.05,226.98-0.09,340.46C559.54,344.11,560.24,345.28,558.98,345.94z"/>
	<path class="st1" d="M383.04,21.04c0.15,2.88-0.86,6-2.55,8.92c-32.76,56.72-65.53,113.44-98.3,170.17
		c-19.37,33.53-38.73,67.06-58.09,100.59c-5.28,9.14-13,12.77-22.04,10.28c-4.56-1.25-8.09-3.94-10.48-8.03
		c-2.84-4.85-5.68-9.7-8.43-14.59c-0.78-1.39-1.72-2.26-3.3-2.75c-4.5-1.42-7.81-4.35-10.17-8.44
		c-20.17-34.93-40.35-69.85-60.53-104.78c-26-45-51.99-90-78.02-134.98c-5.91-10.21-5.42-16.39,2.06-25.46
		c1.79-2.17,3.29-4.57,5.62-6.22c3.66-2.59,7.76-3.41,12.23-3.41c70.73,0.06,141.46,0.04,212.19,0.04
		c33.76,0,67.52-0.02,101.27,0.01C375.01,2.41,382.97,10.25,383.04,21.04z"/>
	<path class="st1" d="M558.89,265.38c0,14.54,0,29.08,0,43.62c-0.85,1.33-2.19,1.67-3.64,1.79c-1.7,0.14-3.41,0.09-5.12,0.09
		c-91.52,0-183.03,0-274.55,0c-3.01,0-6.03,0.07-8.99-0.69c-1.11-0.29-2.13-0.3-2.97,0.78c-7.55,9.73-3.56,22,6.66,25.46
		c2.05,0.69,4.16,0.6,6.27,0.6c25.11,0.01,50.23,0.01,75.34,0.01c67,0,134.01-0.01,201.01,0.02c2.04,0,4.27-0.56,5.99,1.21
		c0.02,0.54,0.03,1.09,0.05,1.63c-1,0.04-2,0.11-3.01,0.11c-93.45,0.01-186.89,0.01-280.34,0c-11.74,0-19.84-8.85-18.75-20.46
		c0.37-3.93,2.38-7.2,4.38-10.44c0.88-1.43,0.89-2.24-0.55-3.43c-7.12-5.9-8.77-15.24-4.13-23.35c7.72-13.5,15.55-26.93,23.33-40.4
		c27.4-47.42,54.81-94.85,82.21-142.28c11.44-19.81,22.85-39.63,34.32-59.42c5.17-8.91,15.12-11.96,24.44-7.55
		c1.2,0.57,2.08,0.68,3.33,0.11c10.06-4.57,19.32-1.58,24.92,8.09c22.76,39.35,45.47,78.72,68.21,118.09
		c13.65,23.63,27.31,47.26,40.97,70.89c0.2,0.34,0.46,0.65,0.69,0.97c-0.03,1.11-0.07,2.23-0.1,3.34c-1.66,0.29-1.79-1.23-2.31-2.11
		c-11.11-18.86-21.96-37.86-32.93-56.8c-14.44-24.93-28.84-49.89-43.26-74.83C469.27,81.23,458.21,62,447.08,42.8
		c-2.11-3.64-4.74-6.73-8.77-8.35c-3.4-1.37-6.86-1.37-10.33-0.37c-1.37,0.4-2.08,0.97-1,2.56c6.84,10.06,12.43,20.86,18.55,31.35
		c14.51,24.89,28.88,49.87,43.28,74.83c16.46,28.52,32.99,57,49.4,85.55c5.95,10.36,11.92,20.71,17.98,31
		C557.31,261.29,558.28,263.24,558.89,265.38z"/>
	<path class="st1" d="M558.96,2.5c-0.02,0.54-0.03,1.09-0.05,1.63c-1.52,1.63-3.54,1.2-5.39,1.2c-23.91,0.03-47.83,0.02-71.74,0.02
		c-2.52,0-5.02,0-7.64,0.86c5.57,0,10.97,0,16.37,0c21,0,42-0.01,63,0.02c1.86,0,3.87-0.4,5.42,1.17c0.02,19.67,0.05,39.34,0.05,59
		c0,49.77-0.02,99.55-0.03,149.32c-3.43-4.45-5.85-9.52-8.64-14.35c-31.95-55.21-63.85-110.45-95.75-165.7
		c-6.57-11.38-1.86-23.63,10.63-27.75c0.65-0.22,1.4-0.4,1.88-0.84c4.21-3.85,9.23-4.77,14.77-4.75
		c24.51,0.11,49.01,0.05,73.52,0.05C556.55,2.39,557.76,2.46,558.96,2.5z"/>
	<path class="st2" d="M527,4.19c10.64-0.01,21.27-0.04,31.91-0.06c0.01,1.09,0.01,2.17,0.02,3.26c-28.3-0.02-56.59-0.05-84.89-0.07
		c-1.08,0-2.16,0-3.98,0c3.26-2.59,6.39-3.13,9.68-3.13"/>
	<path class="st2" d="M348.86,81.04c-40.2,69.58-80.39,139.16-120.59,208.73c-2.26,3.91-4.46,7.85-6.78,11.72
		c-6.76,11.28-22.04,11.27-28.73-0.02c-2.56-4.32-5-8.7-7.56-13.02c-0.8-1.35-0.73-1.96,1.02-1.99c7.66-0.09,12.59-4.27,16.26-10.62
		c39.25-68.04,78.54-136.06,117.83-204.08c7.07-12.25,14.2-24.47,21.23-36.74c5.72-9.97,1.69-21.94-8.82-26.35
		c-2.43-1.02-5.01-1.36-7.65-1.36c-93.05,0.01-186.09,0-279.14,0.03c-2.08,0-4.16,0.35-7.04,0.62c3.49-2.6,6.54-3.69,9.95-3.75
		c0.8-0.01,1.61-0.03,2.41-0.03c104,0,208,0,312,0c9.25,0,15.47,4.43,17.49,12.54c1.18,4.74,0.1,9.09-2.33,13.26"/>
</g>
</svg>
