<?xml version="1.0" encoding="utf-8"?>
<!-- Generator: Adobe Illustrator 28.1.0, SVG Export Plug-In . SVG Version: 6.00 Build 0)  -->
<svg version="1.1" id="Camada_1" xmlns="http://www.w3.org/2000/svg" xmlns:xlink="http://www.w3.org/1999/xlink" x="0px" y="0px"
	 viewBox="0 0 585.75 520.5" style="enable-background:new 0 0 585.75 520.5;" xml:space="preserve">
<style type="text/css">
	.st0{fill:#8A4DCF;}
	.st1{fill:#8B4FD0;}
	.st2{fill:#FAF9FB;}
	.st3{fill:#8C51D0;}
	.st4{fill:#8D52D0;}
	.st5{fill:#F0F0F0;}
</style>
<g>
	<path class="st0" d="M337.84,520.27c12.49-21.6,24.98-43.19,37.45-64.79c19.39-33.6,38.77-67.21,58.12-100.83
		c4.68-8.13,2.16-17.7-5.7-21.95c-3.28-1.77-6.88-1.99-10.53-1.99c-83.47,0.02-166.93,0.01-250.4,0.01
		c-13.72,0-27.45-0.06-41.17,0.03c-8.74,0.06-14.67,4.63-16.48,12.4c-1,4.28,0.13,8.12,2.26,11.81
		c21.38,37.07,42.74,74.15,64.12,111.22c10.41,18.04,20.88,36.06,31.32,54.08c-0.75,0-1.5,0-2.25,0
		c-19.16-33.29-38.32-66.58-57.49-99.86c-12.45-21.61-24.94-43.2-37.38-64.83c-7.09-12.33,0.96-26.43,15.19-26.44
		c98.28-0.04,196.55-0.04,294.83,0c14.46,0.01,22.29,14.08,14.97,26.77c-30.95,53.69-61.93,107.36-92.89,161.05
		c-0.62,1.08-1.15,2.2-1.73,3.31C339.33,520.27,338.59,520.27,337.84,520.27z"/>
	<path class="st1" d="M578.91,520.27c-19.23-33.39-38.45-66.78-57.68-100.17c-9.83-17.07-19.77-34.08-29.47-51.23
		c-3.28-5.81-7.74-9.53-14.48-9.57c-6.77-0.04-11.2,3.75-14.51,9.51c-28.28,49.18-56.66,98.29-84.97,147.45
		c-0.72,1.25-1.93,2.36-1.78,4.02c-0.75,0-1.5,0-2.25,0c6.71-11.81,13.36-23.65,20.13-35.42c22.27-38.71,44.59-77.39,66.88-116.08
		c5.48-9.51,12.62-13,21.49-10.44c4.71,1.36,7.95,4.49,10.34,8.65c21.3,36.97,42.6,73.95,63.92,110.9
		c8.17,14.15,16.41,28.27,24.61,42.4C580.4,520.27,579.65,520.27,578.91,520.27z"/>
	<path class="st1" d="M182.12,520.27c-18.18-31.56-36.35-63.13-54.54-94.69c-15.57-27.02-31.18-54.03-46.69-81.09
		c-3.23-5.63-7.65-9.22-14.28-9.27c-6.66-0.05-11.07,3.52-14.31,9.16c-16.2,28.24-32.49,56.42-48.79,84.59
		c-0.72,1.24-1,2.87-2.55,3.54c-0.59-0.96-0.59-1.92,0-2.88c10.88-18.76,21.77-37.51,32.64-56.28
		c5.81-10.03,11.53-20.12,17.38-30.13c7.73-13.21,23.55-13.1,31.21,0.18c33.52,58.11,67.04,116.23,100.57,174.34
		c0.5,0.86,1.06,1.68,1.6,2.53C183.61,520.27,182.86,520.27,182.12,520.27z"/>
	<path class="st2" d="M0.97,429.63c0,0.96,0,1.92,0,2.88c-0.01,29.25-0.02,58.51-0.03,87.76c-0.23-0.16-0.78,0.38-0.76-0.38
		c0.03-1,0.01-2,0.01-3c0-171.15,0-342.3,0.05-513.45c0-1.1-0.86-2.54,0.7-3.37C0.95,0.85,0.96,1.62,0.98,2.4
		c0.53,0.56,0.86,1.23,1,1.98C2.37,5.72,2.3,7.1,2.3,8.47c0.01,61.31,0.02,122.63,0,183.94c0,0.62,0,1.25-0.06,1.87
		c-0.34,1.39-0.02,2.96-1.14,4.14c-0.05,6.97-0.16,13.95-0.16,20.92c0,29.15,0.03,58.29,0.05,87.44c0.8,0.72,0.95,1.69,1.05,2.68
		c0.38,1.72,0.24,3.47,0.24,5.21c0.01,23.41,0,46.81,0.02,70.22c0,2.74-0.35,5.46-0.33,8.2c-0.18,1.2-0.36,2.4-1.02,3.45
		C0.96,407.57,0.97,418.6,0.97,429.63z"/>
	<path class="st3" d="M272.7,306.49c-48.9,0-97.79,0.01-146.69-0.01c-9.9,0-16.78-5.71-18.41-15.15c-0.72-4.16,0.54-7.87,2.59-11.42
		c20.06-34.79,40.11-69.58,60.17-104.37c28.65-49.7,57.3-99.4,85.94-149.11c5.4-9.37,12.42-12.98,21.09-10.6
		c4.68,1.28,8.07,4.16,10.5,8.39c17.6,30.6,35.27,61.16,52.9,91.74c31.04,53.81,62.05,107.63,93.13,161.42
		c3.09,5.34,5.44,10.63,3.31,16.98c-2.53,7.52-8.89,12.08-17.46,12.1c-18.83,0.04-37.67,0.01-56.51,0.01
		C333.07,306.49,302.89,306.49,272.7,306.49z"/>
	<path class="st1" d="M1.11,198.42c-0.04-1.12-0.09-2.24-0.13-3.37c2.03-0.39,2.46,1.32,3.15,2.52
		c15.98,27.82,32.13,55.54,48.03,83.41c2.71,4.76,6,8.7,11.77,9.45c6.87,0.9,11.8-2.18,15.21-7.99
		c5.87-10.02,11.61-20.11,17.41-30.17c19.89-34.5,39.8-68.99,59.68-103.5c15.64-27.15,31.33-54.27,46.96-81.43
		c1.27-2.21,1.99-4.93,4.69-6.07c0.65,0.03,1.01,0.4,1.18,1c-7.4,12.99-14.74,26.01-22.21,38.96
		c-34.54,59.96-69.1,119.91-103.68,179.84c-1.68,2.91-3.16,5.98-5.8,8.2c-8.43,7.1-20.69,4.94-26.36-4.82
		c-11.59-19.95-23.03-39.98-34.58-59.95C11.38,215.79,6.22,207.12,1.11,198.42z"/>
	<path class="st0" d="M209.06,62.28c-0.28-0.32-0.56-0.64-0.84-0.96c-0.97-2.21,0.46-3.85,1.41-5.53
		c4.95-8.82,9.67-17.82,15.25-26.23C232.47,18.1,226.02,4.94,211,5c-52.9,0.24-105.8,0.1-158.7,0.09C37.2,5.1,22.1,5.11,7,5.08
		c-2.09,0-4.29,0.34-6.04-1.31c0-0.46,0.01-0.91,0.01-1.37C2.1,2.36,3.22,2.28,4.34,2.28C73.45,2.27,142.56,2.3,211.68,2.23
		c6.92-0.01,12.83,1.66,16.79,7.76c3.47,5.34,4.24,11.16,1.18,16.7C223.02,38.68,215.95,50.43,209.06,62.28z"/>
	<path class="st4" d="M1.07,308.56c-0.02-0.6-0.05-1.19-0.07-1.79c7.48-0.02,14.96-0.23,22.43-0.02
		c13.85,0.39,21.5,14.27,14.59,26.3c-11.73,20.42-23.5,40.82-35.27,61.23c-0.48,0.83-0.71,1.89-1.79,2.26c0-0.96,0-1.93,0-2.89
		c0.72-3.61,2.65-6.68,4.47-9.78c9.63-16.47,19.02-33.07,28.63-49.56c1.07-1.83,2.1-3.69,2.81-5.7c3.21-9.01-3.33-18.51-12.86-18.61
		c-6.23-0.07-12.46,0.04-18.69-0.05C3.82,309.94,2.02,310.45,1.07,308.56z"/>
	<path class="st5" d="M272.43,304.55c-48.65,0-97.3-0.05-145.94,0.05c-6.54,0.01-11.78-1.93-15.12-7.71
		c-3.16-5.47-2.67-10.95,0.45-16.34c17.58-30.46,35.14-60.94,52.7-91.4c31.28-54.24,62.57-108.46,93.82-162.71
		c5.54-9.62,15.53-12.42,23.61-6.5c1.96,1.43,3.39,3.3,4.58,5.37c31.59,54.79,63.16,109.59,94.75,164.38
		c17.26,29.93,34.52,59.87,51.8,89.79c4.56,7.9,4.03,15.46-1.61,20.87c-3.13,3-6.89,4.25-11.23,4.23
		c-14.22-0.07-28.44-0.03-42.66-0.03C342.54,304.55,307.48,304.55,272.43,304.55z"/>
</g>
</svg>
